<?xml version="1.0" encoding="UTF-8"?>
<svg version="1.1" xmlns="http://www.w3.org/2000/svg" width="500" height="500">
<path d="M0 0 C16 0 16 0 20 2 C22.79942127 6.54463009 22.29510475 11.77676504 22.25 16.9375 C22.25773437 17.81857422 22.26546875 18.69964844 22.2734375 19.60742188 C22.25900117 24.42554622 22.03565179 28.53446809 20 33 C17.703463 34.1482685 16.41686833 34.11561175 13.8671875 34.09765625 C13.14128418 34.09515869 12.41538086 34.09266113 11.66748047 34.09008789 C10.74596191 34.08098389 9.82444336 34.07187988 8.875 34.0625 C5.94625 34.041875 3.0175 34.02125 0 34 C0 22.78 0 11.56 0 0 Z M5 5 C5 13.25 5 21.5 5 30 C8.96 30 12.92 30 17 30 C17 21.75 17 13.5 17 5 C13.04 5 9.08 5 5 5 Z " fill="#d4a84b" transform="translate(304,268)"/>
<path d="M0 0 C2.31 0 4.62 0 7 0 C9.53712705 6.51846488 11.65501898 13.12101239 13.6875 19.8125 C14.00783203 20.84826172 14.32816406 21.88402344 14.65820312 22.95117188 C15.11163086 24.43907227 15.11163086 24.43907227 15.57421875 25.95703125 C15.84838623 26.85397705 16.12255371 27.75092285 16.4050293 28.67504883 C17 31 17 31 17 34 C15.35 34 13.7 34 12 34 C10.74335022 31.09399739 10 29.20395416 10 26 C6.04 26.33 2.08 26.66 -2 27 C-2.99 29.31 -3.98 31.62 -5 34 C-6.65 34 -8.3 34 -10 34 C-7.92845785 26.21995228 -5.67698847 18.50819422 -3.3125 10.8125 C-2.99216797 9.76513672 -2.67183594 8.71777344 -2.34179688 7.63867188 C-1.56267541 5.09199125 -0.78205799 2.54578006 0 0 Z M3 7 C1.68 11.62 0.36 16.24 -1 21 C1.97 21 4.94 21 8 21 C7.55187982 18.8520106 7.09121652 16.70663439 6.625 14.5625 C6.24214844 12.77005859 6.24214844 12.77005859 5.8515625 10.94140625 C5.57054687 9.97074219 5.28953125 9.00007813 5 8 C4.34 7.67 3.68 7.34 3 7 Z " fill="#d4a84b" transform="translate(193,268)"/>
<path d="M0 0 C1.134375 0.020625 2.26875 0.04125 3.4375 0.0625 C4.86341306 4.743363 6.28753119 9.42476676 7.70996094 14.10668945 C8.19448879 15.70059098 8.67951386 17.29434145 9.16503906 18.88793945 C9.86132322 21.17359878 10.55583936 23.45978875 11.25 25.74609375 C11.57810669 26.8211039 11.57810669 26.8211039 11.9128418 27.91783142 C13.4375 32.94862829 13.4375 32.94862829 13.4375 34.0625 C11.4575 34.0625 9.4775 34.0625 7.4375 34.0625 C6.7775 31.7525 6.1175 29.4425 5.4375 27.0625 C1.4775 26.7325 -2.4825 26.4025 -6.5625 26.0625 C-7.2225 28.7025 -7.8825 31.3425 -8.5625 34.0625 C-10.2125 34.0625 -11.8625 34.0625 -13.5625 34.0625 C-12.22865537 26.52977151 -10.26311079 19.30261523 -8 12 C-7.52530273 10.43475586 -7.52530273 10.43475586 -7.04101562 8.83789062 C-4.35262471 0.07636184 -4.35262471 0.07636184 0 0 Z M-0.5625 6.0625 C-1.2325834 8.18642506 -1.89846797 10.31167524 -2.5625 12.4375 C-2.93375 13.62085938 -3.305 14.80421875 -3.6875 16.0234375 C-4.65472606 18.85573439 -4.65472606 18.85573439 -4.5625 21.0625 C-1.5925 21.0625 1.3775 21.0625 4.4375 21.0625 C3.1175 16.1125 1.7975 11.1625 0.4375 6.0625 C0.1075 6.0625 -0.2225 6.0625 -0.5625 6.0625 Z " fill="#d4a84b" transform="translate(226.5625,267.9375)"/>
<path d="M0 0 C2.31 0 4.62 0 7 0 C10.89839687 11.227383 14.31788922 22.41959227 17 34 C15.35 34 13.7 34 12 34 C10.23537317 30.91190305 10 29.76687864 10 26 C5.71 26 1.42 26 -3 26 C-3.2165625 27.7015625 -3.2165625 27.7015625 -3.4375 29.4375 C-4 33 -4 33 -5 34 C-6.66617115 34.04063832 -8.33388095 34.042721 -10 34 C-7.43930541 22.44029299 -3.65867351 11.24775622 0 0 Z M3 6 C2.3299166 8.12392506 1.66403203 10.24917524 1 12.375 C0.62875 13.55835938 0.2575 14.74171875 -0.125 15.9609375 C-1.09222606 18.79323439 -1.09222606 18.79323439 -1 21 C1.97 21 4.94 21 8 21 C7.54901762 19.06077578 7.08894441 17.12366406 6.625 15.1875 C6.24214844 13.56908203 6.24214844 13.56908203 5.8515625 11.91796875 C5.11267119 8.84466657 5.11267119 8.84466657 3 6 Z " fill="#d4a84b" transform="translate(252,268)"/>
<path d="M0 0 C7.59 0 15.18 0 23 0 C23 1.65 23 3.3 23 5 C17.06 5 11.12 5 5 5 C5 8.3 5 11.6 5 15 C9.95 15 14.9 15 20 15 C20 16.32 20 17.64 20 19 C15.05 19 10.1 19 5 19 C5 22.63 5 26.26 5 30 C10.94 30 16.88 30 23 30 C23 31.32 23 32.64 23 34 C15.41 34 7.82 34 0 34 C0 22.78 0 11.56 0 0 Z " fill="#d4a84b" transform="translate(157,200)"/>
<path d="M0 0 C7.26 0 14.52 0 22 0 C22 1.65 22 3.3 22 5 C16.39 5 10.78 5 5 5 C5 8.3 5 11.6 5 15 C9.95 15 14.9 15 20 15 C20 16.32 20 17.64 20 19 C15.05 19 10.1 19 5 19 C5 22.63 5 26.26 5 30 C10.61 30 16.22 30 22 30 C22 31.32 22 32.64 22 34 C14.74 34 7.48 34 0 34 C0 22.78 0 11.56 0 0 Z " fill="#d4a84b" transform="translate(216,200)"/>
<path d="M0 0 C0.84755859 0.00966797 1.69511719 0.01933594 2.56835938 0.02929688 C3.44943359 0.05443359 4.33050781 0.07957031 5.23828125 0.10546875 C6.13095703 0.11900391 7.02363281 0.13253906 7.94335938 0.14648438 C10.14644291 0.18182796 12.34830707 0.23116382 14.55078125 0.29296875 C14.55078125 1.94296875 14.55078125 3.59296875 14.55078125 5.29296875 C8.77318241 5.41333539 3.27118136 5.12502695 -2.44921875 4.29296875 C-2.44921875 7.59296875 -2.44921875 10.89296875 -2.44921875 14.29296875 C-1.56878906 14.30714844 -0.68835938 14.32132813 0.21875 14.3359375 C9.60403569 14.72134879 9.60403569 14.72134879 13.86328125 17.29296875 C16.17180762 21.39701562 16.3350897 24.68724254 15.55078125 29.29296875 C13.46970017 33.83350929 13.46970017 33.83350929 10.55078125 35.29296875 C9.17529969 35.37605513 7.79592329 35.40032891 6.41796875 35.390625 C5.61230469 35.38740234 4.80664062 35.38417969 3.9765625 35.38085938 C2.71392578 35.36829102 2.71392578 35.36829102 1.42578125 35.35546875 C0.57628906 35.35095703 -0.27320313 35.34644531 -1.1484375 35.34179688 C-3.24872784 35.32999749 -5.34898205 35.31206181 -7.44921875 35.29296875 C-7.44921875 33.64296875 -7.44921875 31.99296875 -7.44921875 30.29296875 C5.22048512 30.1084585 5.22048512 30.1084585 10.55078125 31.29296875 C10.55078125 27.66296875 10.55078125 24.03296875 10.55078125 20.29296875 C9.21015625 20.33421875 7.86953125 20.37546875 6.48828125 20.41796875 C2.10022628 20.41796875 -1.33277029 19.80513349 -5.44921875 18.29296875 C-8.2273127 15.5148748 -7.74877578 13.72541672 -7.76171875 9.85546875 C-7.77847656 8.70175781 -7.79523438 7.54804688 -7.8125 6.359375 C-7.44921875 3.29296875 -7.44921875 3.29296875 -6.20458984 1.61962891 C-3.97633518 -0.06442337 -2.77006882 -0.0557732 0 0 Z " fill="#d4a84b" transform="translate(134.44921875,199.70703125)"/>
<path d="M0 0 C3.12027609 4.55040263 2.5 7.34796423 2.5 13.1875 C-3.44 13.1875 -9.38 13.1875 -15.5 13.1875 C-15.5 15.4975 -15.5 17.8075 -15.5 20.1875 C-10.22 19.8575 -4.94 19.5275 0.5 19.1875 C0.5 20.8375 0.5 22.4875 0.5 24.1875 C-2.08445773 24.2956866 -4.66437352 24.37487237 -7.25 24.4375 C-7.97960937 24.47101563 -8.70921875 24.50453125 -9.4609375 24.5390625 C-13.06127587 24.6045232 -15.06022693 24.52220071 -17.96875 22.30859375 C-21.29095516 17.7066616 -21.0063016 11.672434 -20.5 6.1875 C-19.85934651 3.31541781 -19.08738689 1.78023192 -17.5 -0.8125 C-12.11789576 -3.88798814 -5.02168218 -3.64071958 0 0 Z M-15.5 3.1875 C-15.5 4.8375 -15.5 6.4875 -15.5 8.1875 C-11.21 8.1875 -6.92 8.1875 -2.5 8.1875 C-2.5 6.5375 -2.5 4.8875 -2.5 3.1875 C-3.55600378 1.90879618 -3.55600378 1.90879618 -5.96875 2.0546875 C-6.9690625 2.05726563 -7.969375 2.05984375 -9 2.0625 C-10.50046875 2.05863281 -10.50046875 2.05863281 -12.03125 2.0546875 C-14.44399622 1.90879618 -14.44399622 1.90879618 -15.5 3.1875 Z " fill="#d4a84b" transform="translate(352.5,278.8125)"/>
<path d="M0 0 C5.00535631 1.64546162 8.9815125 4.56457847 13.25 7.5625 C13.9821875 8.06974609 14.714375 8.57699219 15.46875 9.09960938 C21.90710939 13.57665373 21.90710939 13.57665373 22.6796875 17.09765625 C21.88800794 21.64298887 21.23642405 22.06669489 17.6953125 24.74609375 C15.85491056 26.00091325 13.99721001 27.23065248 12.125 28.4375 C11.18785156 29.07365234 10.25070313 29.70980469 9.28515625 30.36523438 C2.36536654 35 2.36536654 35 0 35 C-0.81404963 31.74380149 -1.01399248 29.22588784 0 26 C3.66706299 22.73502725 7.7007905 20.34793138 12 18 C9.21730153 15.10195651 6.68561717 12.66138311 3.1875 10.6875 C0.94905847 9.1758252 0.12369402 8.58157891 -0.4453125 5.90625 C-0.4375 3.6875 -0.4375 3.6875 0 0 Z " fill="#d4a84b" transform="translate(44,201)"/>
<path d="M0 0 C1.89492188 0.15275391 1.89492188 0.15275391 3.828125 0.30859375 C4.79234375 0.39238281 5.7565625 0.47617187 6.75 0.5625 C6.75 2.2125 6.75 3.8625 6.75 5.5625 C1.8 5.2325 -3.15 4.9025 -8.25 4.5625 C-8.25 6.5425 -8.25 8.5225 -8.25 10.5625 C-7.37988281 10.52769531 -7.37988281 10.52769531 -6.4921875 10.4921875 C-1.676083 10.38092436 2.26803684 10.54561658 6.75 12.5625 C8.31516118 15.69282236 8.290337 19.15323084 7.75 22.5625 C6.80859375 24.8046875 6.80859375 24.8046875 4.75 26.5625 C1.6759563 27.06151795 -1.33380761 26.9373198 -4.4375 26.8125 C-5.28248047 26.79445313 -6.12746094 26.77640625 -6.99804688 26.7578125 C-9.08251573 26.71070586 -11.16640144 26.63896233 -13.25 26.5625 C-13.25 24.9125 -13.25 23.2625 -13.25 21.5625 C-7.97 21.8925 -2.69 22.2225 2.75 22.5625 C2.75 20.2525 2.75 17.9425 2.75 15.5625 C2.01394531 15.59730469 1.27789062 15.63210938 0.51953125 15.66796875 C-3.66571205 15.78407193 -7.38422775 15.80016297 -11.4375 14.6875 C-14.08919075 11.57862119 -13.72029195 8.81360695 -13.62109375 4.83984375 C-13.25 2.5625 -13.25 2.5625 -11.25 0.5625 C-7.53400334 -0.88743328 -3.90758255 -0.32563188 0 0 Z " fill="#d4a84b" transform="translate(405.25,276.4375)"/>
<path d="M0 0 C0.80566406 0.00322266 1.61132812 0.00644531 2.44140625 0.00976562 C3.70404297 0.02233398 3.70404297 0.02233398 4.9921875 0.03515625 C5.84167969 0.03966797 6.69117188 0.04417969 7.56640625 0.04882812 C9.66669659 0.06062751 11.7669508 0.07856319 13.8671875 0.09765625 C14.1971875 1.74765625 14.5271875 3.39765625 14.8671875 5.09765625 C8.9271875 4.76765625 2.9871875 4.43765625 -3.1328125 4.09765625 C-3.1328125 13.00765625 -3.1328125 21.91765625 -3.1328125 31.09765625 C-1.8128125 30.76765625 -0.4928125 30.43765625 0.8671875 30.09765625 C3.2829781 30.02933638 5.70053463 30.01277983 8.1171875 30.03515625 C10.01210938 30.04869141 10.01210938 30.04869141 11.9453125 30.0625 C12.90953125 30.07410156 13.87375 30.08570313 14.8671875 30.09765625 C14.8671875 31.74765625 14.8671875 33.39765625 14.8671875 35.09765625 C11.76319772 35.18475914 8.65952202 35.23807934 5.5546875 35.28515625 C4.23307617 35.32286133 4.23307617 35.32286133 2.88476562 35.36132812 C1.61342773 35.37583008 1.61342773 35.37583008 0.31640625 35.390625 C-0.46387939 35.40633545 -1.24416504 35.4220459 -2.0480957 35.43823242 C-4.69117617 35.00643745 -5.51709429 34.19738356 -7.1328125 32.09765625 C-8.70027953 27.39525515 -8.31728753 22.64730782 -8.3203125 17.72265625 C-8.33255859 16.68109375 -8.34480469 15.63953125 -8.35742188 14.56640625 C-8.35935547 13.55835938 -8.36128906 12.5503125 -8.36328125 11.51171875 C-8.36739014 10.59342285 -8.37149902 9.67512695 -8.37573242 8.72900391 C-8.10800739 5.82896327 -7.43156609 3.69858946 -6.1328125 1.09765625 C-3.8362755 -0.05061225 -2.54968083 -0.0179555 0 0 Z " fill="#d4a84b" transform="translate(253.1328125,199.90234375)"/>
<path d="M0 0 C1.16781006 0.00523682 2.33562012 0.01047363 3.53881836 0.01586914 C4.79887695 0.0190918 6.05893555 0.02231445 7.35717773 0.02563477 C8.6976732 0.03399136 10.03816799 0.04245632 11.37866211 0.05102539 C12.72306153 0.05603879 14.06746271 0.06060197 15.41186523 0.06469727 C18.71334151 0.07653051 22.01473014 0.09301568 25.31616211 0.11352539 C25.31616211 1.76352539 25.31616211 3.41352539 25.31616211 5.11352539 C21.35616211 5.11352539 17.39616211 5.11352539 13.31616211 5.11352539 C13.31616211 14.68352539 13.31616211 24.25352539 13.31616211 34.11352539 C11.66616211 34.11352539 10.01616211 34.11352539 8.31616211 34.11352539 C8.31616211 24.54352539 8.31616211 14.97352539 8.31616211 5.11352539 C4.68616211 5.11352539 1.05616211 5.11352539 -2.68383789 5.11352539 C-3.01383789 3.79352539 -3.34383789 2.47352539 -3.68383789 1.11352539 C-2.68383789 0.11352539 -2.68383789 0.11352539 0 0 Z " fill="#d4a84b" transform="translate(273.683837890625,199.886474609375)"/>
<path d="M0 0 C1.65 0 3.3 0 5 0 C6 1 6 1 6.11352539 3.77563477 C6.10828857 4.98533936 6.10305176 6.19504395 6.09765625 7.44140625 C6.09443359 8.74658203 6.09121094 10.05175781 6.08789062 11.39648438 C6.07953401 12.7851569 6.07106905 14.17382877 6.0625 15.5625 C6.05748666 16.95507656 6.05292347 18.34765481 6.04882812 19.74023438 C6.03699442 23.16017451 6.01905831 26.5800925 6 30 C11.28 30 16.56 30 22 30 C22 31.32 22 32.64 22 34 C14.74 34 7.48 34 0 34 C0 22.78 0 11.56 0 0 Z " fill="#d4a84b" transform="translate(187,200)"/>
<path d="M0 0 C1.98 0 3.96 0 6 0 C7.00605593 2.60197202 8.00502525 5.20629362 9 7.8125 C9.28617187 8.55048828 9.57234375 9.28847656 9.8671875 10.04882812 C10.13789063 10.76103516 10.40859375 11.47324219 10.6875 12.20703125 C11.06455078 13.18893433 11.06455078 13.18893433 11.44921875 14.19067383 C12 16 12 16 12 19 C12.66 19 13.32 19 14 19 C14.18175781 18.38253906 14.36351562 17.76507813 14.55078125 17.12890625 C16.25720447 11.37957263 18.06654726 5.67694634 20 0 C21.65 0 23.3 0 25 0 C24.36190624 5.48583387 22.53149832 10.22559556 20.5 15.3125 C20.01853516 16.54709961 20.01853516 16.54709961 19.52734375 17.80664062 C17.14318665 23.85681335 17.14318665 23.85681335 16 25 C13.66702567 25.04092937 11.33294775 25.04241723 9 25 C7.4973608 21.02182489 5.99833048 17.04229973 4.5 13.0625 C4.07074219 11.92619141 3.64148438 10.78988281 3.19921875 9.61914062 C2.79316406 8.53955078 2.38710938 7.45996094 1.96875 6.34765625 C1.59169922 5.34742432 1.21464844 4.34719238 0.82617188 3.31665039 C0 1 0 1 0 0 Z " fill="#d4a84b" transform="translate(360,277)"/>
<path d="M0 0 C2.64 0 5.28 0 8 0 C8 4.29 8 8.58 8 13 C5.29120665 14.35439668 2.99066732 14.06501451 0 14 C0 12.68 0 11.36 0 10 C1.32 10 2.64 10 4 10 C4 8.68 4 7.36 4 6 C2.68 6 1.36 6 0 6 C0 4.02 0 2.04 0 0 Z " fill="#d4a84b" transform="translate(457,295)"/>
<path d="M0 0 C2.97 0 5.94 0 9 0 C9.02708567 1.60407328 9.04643483 3.2082785 9.0625 4.8125 C9.07410156 5.70582031 9.08570313 6.59914063 9.09765625 7.51953125 C9 10 9 10 8 13 C5.36 13 2.72 13 0 13 C0 12.01 0 11.02 0 10 C1.65 10 3.3 10 5 10 C5 8.68 5 7.36 5 6 C3.35 6 1.7 6 0 6 C0 4.02 0 2.04 0 0 Z " fill="#d4a84b" transform="translate(427,266)"/>
<path d="M0 0 C0 1.32 0 2.64 0 4 C-1.65 4 -3.3 4 -5 4 C-5 5.32 -5 6.64 -5 8 C-3.35 8 -1.7 8 0 8 C0 9.65 0 11.3 0 13 C-2.97 13 -5.94 13 -9 13 C-9.08121924 11.39667209 -9.13929134 9.79215974 -9.1875 8.1875 C-9.22230469 7.29417969 -9.25710937 6.40085937 -9.29296875 5.48046875 C-9 3 -9 3 -7.6875 1.1875 C-5.17517337 -0.58043356 -2.9827587 -0.19885058 0 0 Z " fill="#d4a84b" transform="translate(172,266)"/>
<path d="M0 0 C7.26 0 14.52 0 22 0 C22 1.32 22 2.64 22 4 C14.74 4 7.48 4 0 4 C0 2.68 0 1.36 0 0 Z " fill="#d4a84b" transform="translate(65,240)"/>
<path d="M0 0 C1.98 0 3.96 0 6 0 C6 2.31 6 4.62 6 7 C4.02 7 2.04 7 0 7 C0 4.69 0 2.38 0 0 Z " fill="#d4a84b" transform="translate(458,277)"/>
</svg>
