<svg xmlns="http://www.w3.org/2000/svg" viewBox="0 0 925.8 246.0" width="926" height="246" fill="#c23631">
<g transform="translate(4.40 -14.00)">
<path d="M52.40 73.30L7.60 94.40L7.60 82.90L36.60 69.50Q38.60 68.60 40.55 68Q42.50 67.40 43.60 67.10Q42.50 66.90 40.50 66.30Q38.50 65.70 36.60 64.90L7.60 51.40L7.60 39.70L52.40 60.80L52.40 73.30M114 113.80L66 113.80L66 102.50L114 102.50L114 113.80M210.30 101Q202.90 101 197.35 98.40Q191.80 95.80 188.75 90.95Q185.70 86.10 185.70 79.40L198 79.40Q198 84.30 201.35 87.20Q204.70 90.10 210.30 90.10Q215.70 90.10 218.85 87.25Q222 84.40 222 79.60Q222 76 219.95 73.25Q217.90 70.50 214.10 69.50L204.30 67Q196.40 65 191.80 59.50Q187.20 54 187.20 46.40Q187.20 37.10 193.30 31.55Q199.40 26 209.60 26Q216.50 26 221.65 28.50Q226.80 31 229.60 35.55Q232.40 40.10 232.40 46.20L220.20 46.20Q220.20 42 217.30 39.40Q214.40 36.80 209.60 36.80Q204.90 36.80 202.15 39.35Q199.40 41.90 199.40 46Q199.40 49.40 201.35 51.60Q203.30 53.80 206.80 54.80L216.90 57.30Q225 59.30 229.65 65.30Q234.30 71.30 234.30 79.60Q234.30 86.10 231.35 90.90Q228.40 95.70 223 98.35Q217.60 101 210.30 101M292.60 100L248.80 100L248.80 27L292.60 27L292.60 38L261.10 38L261.10 57L289.10 57L289.10 67.60L261.10 67.60L261.10 89L292.60 89L292.60 100M355.60 100L312.10 100L312.10 27L324.60 27L324.60 88.70L355.60 88.70L355.60 100M412.60 100L368.80 100L368.80 27L412.60 27L412.60 38L381.10 38L381.10 57L409.10 57L409.10 67.60L381.10 67.60L381.10 89L412.60 89L412.60 100M450.80 101Q443.70 101 438.50 98.35Q433.30 95.70 430.45 90.85Q427.60 86 427.60 79.40L427.60 47.60Q427.60 41 430.45 36.15Q433.30 31.30 438.50 28.65Q443.70 26 450.80 26Q457.80 26 463 28.65Q468.20 31.30 471.10 36.15Q474 41 474 47.60L461.40 47.60Q461.40 42.50 458.65 39.75Q455.90 37 450.80 37Q445.70 37 442.90 39.75Q440.10 42.50 440.10 47.60L440.10 79.40Q440.10 84.50 442.90 87.25Q445.70 90 450.80 90Q455.90 90 458.65 87.25Q461.40 84.50 461.40 79.40L474 79.40Q474 86 471.10 90.85Q468.20 95.70 463 98.35Q457.80 101 450.80 101M516.30 100L503.70 100L503.70 38.30L484.60 38.30L484.60 27L535.40 27L535.40 38.30L516.30 38.30"/>
<path d="M305.90 189L294.20 189L293.30 159L306.70 159L305.90 189M346.30 232L333.50 232L351.90 159L368 159L386.50 232L373.70 232L369.70 214.30L350.30 214.30L346.30 232M357 184.40L352.60 204.10L367.40 204.10L363 184.50Q361.90 179.60 361.10 175.65Q360.30 171.70 360 169.90Q359.70 171.70 358.90 175.65Q358.10 179.60 357 184.40M406.30 232L393.50 232L411.90 159L428 159L446.50 232L433.70 232L429.70 214.30L410.30 214.30L406.30 232M417 184.40L412.60 204.10L427.40 204.10L423 184.50Q421.90 179.60 421.10 175.65Q420.30 171.70 420 169.90Q419.70 171.70 418.90 175.65Q418.10 179.60 417 184.40M466.30 232L453.50 232L471.90 159L488 159L506.50 232L493.70 232L489.70 214.30L470.30 214.30L466.30 232M477 184.40L472.60 204.10L487.40 204.10L483 184.50Q481.90 179.60 481.10 175.65Q480.30 171.70 480 169.90Q479.70 171.70 478.90 175.65Q478.10 179.60 477 184.40M599.20 232L577.50 232L577.50 159L599.20 159Q606.60 159 612.05 161.85Q617.50 164.70 620.50 169.80Q623.50 174.90 623.50 181.80L623.50 209.10Q623.50 216 620.50 221.15Q617.50 226.30 612.05 229.15Q606.60 232 599.20 232M590 170.20L590 220.80L599.20 220.80Q604.60 220.80 607.80 217.65Q611 214.50 611 209.10L611 181.80Q611 176.50 607.80 173.35Q604.60 170.20 599.20 170.20L590 170.20M660.10 233Q653.10 233 647.90 230.30Q642.70 227.60 639.85 222.65Q637 217.70 637 211L637 198Q637 191.30 639.85 186.35Q642.70 181.40 647.90 178.70Q653.10 176 660.10 176Q667 176 672.15 178.70Q677.30 181.40 680.15 186.25Q683 191.10 683 197.60L683 207.60L649 207.60L649 211.40Q649 217 651.90 219.85Q654.80 222.70 660.10 222.70Q664 222.70 666.75 221.35Q669.50 220 670 217.40L682.40 217.40Q681.10 224.50 675 228.75Q668.90 233 660.10 233M649 197.60L649 199.50L671 199.40L671 197.50Q671 191.80 668.20 188.70Q665.40 185.60 660.10 185.60Q654.60 185.60 651.80 188.75Q649 191.90 649 197.60M728 232L712.10 232L693.60 177L706.70 177L717.30 210.40Q718.30 213.40 719.05 216.45Q719.80 219.50 720.10 221.70Q720.50 219.50 721.15 216.45Q721.80 213.40 722.70 210.50L733.20 177L746.40 177L728 232M782.10 232.90L777.70 232.90Q767.90 232.90 762.20 228.45Q756.50 224 756.50 216.40L768.80 216.40Q768.80 219.60 771.15 221.30Q773.50 223 777.70 223L782.10 223Q786.60 223 789.05 221.30Q791.50 219.60 791.50 216.40Q791.50 213.40 789.80 211.95Q788.10 210.50 784.60 210L770.90 208.20Q764.30 207.30 760.75 203.10Q757.20 198.90 757.20 192.20Q757.20 184.40 762.40 180.25Q767.60 176.10 777.40 176.10L782 176.10Q791.20 176.10 796.80 180.30Q802.40 184.50 802.60 191.50L790.20 191.50Q790.10 188.90 787.90 187.35Q785.70 185.80 782 185.80L777.40 185.80Q773.40 185.80 771.30 187.45Q769.20 189.10 769.20 191.90Q769.20 194.40 770.75 195.60Q772.30 196.80 775.30 197.10L788.20 198.90Q795.80 199.80 799.65 204.25Q803.50 208.70 803.50 216.20Q803.50 224.20 798.05 228.55Q792.60 232.90 782.10 232.90M845.90 189L834.20 189L833.30 159L846.70 159L845.90 189M901 192.80L899 192.80Q895.30 192.80 892.95 190.40Q890.60 188 890.60 184.40Q890.60 180.80 893 178.40Q895.40 176 899 176L901 176Q904.60 176 907 178.40Q909.40 180.80 909.40 184.40Q909.40 188 907.05 190.40Q904.70 192.80 901 192.80M900.50 248L888.50 248L893.80 217.40L908.10 217.40"/>
</g>
</svg>
